<svg id="Group_13" data-name="Group 13" xmlns="http://www.w3.org/2000/svg" width="64.901" height="65" viewBox="0 0 64.901 65">
  <path id="Path_127" data-name="Path 127" d="M50.1,19.9,32.5,11,15,19.9,32.7,30.5Z" fill="#492e81"/>
  <path id="Path_128" data-name="Path 128" d="M13.6,42.3,31.5,52.9V32.6L13.6,22.1Z" fill="#492e81"/>
  <path id="Path_129" data-name="Path 129" d="M34,8.9,52,18a2.854,2.854,0,0,1,1.8,3V41.4l8.3,4.4a32.19,32.19,0,0,0,2.8-13.2A32.341,32.341,0,0,0,34,0Z" fill="#492e81"/>
  <path id="Path_130" data-name="Path 130" d="M53.1,43.8a4.263,4.263,0,0,1-1.2,1.1L35.3,55c-3.2,1.9-4.6.3-4.6.3L11.6,44,4,48a32.558,32.558,0,0,0,57.2,0Z" fill="#492e81"/>
  <path id="Path_131" data-name="Path 131" d="M50.6,42.8a1.6,1.6,0,0,0,.8-1.4V22.2L34,32.6V52.8h0Z" fill="#492e81"/>
  <path id="Path_132" data-name="Path 132" d="M11.1,41.3V21.4A3.892,3.892,0,0,1,13.2,18L31.5,8.6V0A32.516,32.516,0,0,0,2.8,45.7Z" fill="#492e81"/>
</svg>
