<svg xmlns="http://www.w3.org/2000/svg" width="34.607" height="45.987" viewBox="0 0 34.607 45.987">
  <g id="g5XqlC.tif_1_" transform="translate(0.008)">
    <path id="Path_122" data-name="Path 122" d="M34.332,0a7.978,7.978,0,0,1,5.05,1.574.17.17,0,0,0,.131.066,4.888,4.888,0,0,1,2.525,3.05A14.158,14.158,0,0,1,42.6,7.772c.033.492.066.951.131,1.41a.25.25,0,0,0,.066.164,1.554,1.554,0,0,1,.525,1.082,5.208,5.208,0,0,1-.59,3.214,5.15,5.15,0,0,1-.689.787.714.714,0,0,0-.164.262,13.33,13.33,0,0,1-3.148,4.886,7.308,7.308,0,0,1-3.214,1.9,5.119,5.119,0,0,1-4.132-.82,9.491,9.491,0,0,1-3.41-3.607c-.426-.721-.754-1.541-1.115-2.3a2.121,2.121,0,0,0-.262-.3,4.223,4.223,0,0,1-.525-.557,5.411,5.411,0,0,1-.656-3.771,1.1,1.1,0,0,1,.492-.82c.066-.033.066-.164.1-.262.1-1.017.131-2.066.3-3.082a6.2,6.2,0,0,1,.984-2.722A4.763,4.763,0,0,1,28.757,1.8c.361-.2.721-.426,1.082-.656A8.5,8.5,0,0,1,34.332,0Z" transform="translate(-17.023 0)" fill="#fff"/>
    <path id="Path_123" data-name="Path 123" d="M38.055,104.527a10.507,10.507,0,0,0,4.23,4.23c.2-.2.361-.426.557-.623a3.1,3.1,0,0,1,3.148-.721,3.044,3.044,0,0,1,2.2,2.394,1.743,1.743,0,0,1-.426,1.541,2.189,2.189,0,0,1-1.541.82,11.055,11.055,0,0,1-2.328.033,10.314,10.314,0,0,1-4.46-1.508,10.421,10.421,0,0,1-4.755-6.657,9.451,9.451,0,0,1-.066-4.066,1.716,1.716,0,0,1,1.8-1.377,3.167,3.167,0,0,1,2.984,2.853,3.105,3.105,0,0,1-1.246,2.918C38.154,104.462,38.121,104.462,38.055,104.527Z" transform="translate(-23.14 -66.259)" fill="#fff"/>
    <path id="Path_124" data-name="Path 124" d="M34.459,75.983a12.788,12.788,0,0,0-.59-3.345,3.916,3.916,0,0,0-2.886-2.722c-.656-.164-1.344-.3-2-.426a13.8,13.8,0,0,1-5.968-2.525c-.033-.033-.066-.033-.131-.066a1.4,1.4,0,0,1-.721.984,6.7,6.7,0,0,1-1.312.59,12.683,12.683,0,0,1-5.87.3,7.032,7.032,0,0,1-2.427-.787A1.519,1.519,0,0,1,11.7,66.9c-.066.033-.1.066-.164.1a13.1,13.1,0,0,1-5.279,2.394c-.951.2-1.935.393-2.886.656a3.373,3.373,0,0,0-2.3,1.8,9.017,9.017,0,0,0-.656,1.869,21.62,21.62,0,0,0-.426,4.82,2.417,2.417,0,0,0,.853,2,7.693,7.693,0,0,0,1.968,1.246A20.821,20.821,0,0,0,7.242,83.1c.361.066.754.131,1.115.2v-.2a9.018,9.018,0,1,1,18.035,0v.164a24.916,24.916,0,0,0,4.886-1.279A7.528,7.528,0,0,0,33.8,80.509a2.278,2.278,0,0,0,.787-1.935C34.525,77.656,34.525,76.8,34.459,75.983Z" transform="translate(0 -44.962)" fill="#fff"/>
  </g>
</svg>
