<svg id="Group_12" data-name="Group 12" xmlns="http://www.w3.org/2000/svg" width="65.151" height="61.914" viewBox="0 0 65.151 61.914">
  <g id="Group_1" data-name="Group 1">
    <path id="Path_49" data-name="Path 49" d="M4.951,57.757.8,55.318v-4.7L4.878,48.2l4.1,2.421v4.7Z" transform="translate(-0.654 -39.425)" fill="#492f81"/>
    <path id="Path_50" data-name="Path 50" d="M95.66,6.9,91,34.262,98.355,8.447Z" transform="translate(-74.434 -5.644)" fill="#492f81"/>
    <path id="Path_51" data-name="Path 51" d="M150.474,80.039,135,94.821,147.051,78.2Z" transform="translate(-110.424 -63.964)" fill="#5167ad"/>
    <path id="Path_52" data-name="Path 52" d="M141.042,35.7,136.8,45.057h10.395l2.094-4.606Z" transform="translate(-111.896 -29.201)" fill="#5167ad" opacity="0.8"/>
    <path id="Path_53" data-name="Path 53" d="M34.7,32.822l3.24,7.446h3.914L39.961,29.8Z" transform="translate(-28.383 -24.375)" fill="#5167ad"/>
    <path id="Path_54" data-name="Path 54" d="M37.358,27.435,34.7,25.869V22.847L37.321,21.3l2.64,1.547v3.022Z" transform="translate(-28.383 -17.422)" fill="#88589f"/>
    <path id="Path_55" data-name="Path 55" d="M164.287,32.048,160.1,29.573V24.821l4.114-2.421,4.132,2.421v4.751Z" transform="translate(-130.954 -18.322)" fill="#492f81"/>
    <path id="Path_56" data-name="Path 56" d="M197.167,71.979,194.8,70.414l.091-2.367L197.13,66.7l2.257,1.347v2.585Z" transform="translate(-159.337 -54.557)" fill="#9684bc" opacity="0.86"/>
    <path id="Path_57" data-name="Path 57" d="M.8,55.318l8.137,7.664V55.318h2.112l-2.075-4.7L4.878,48.2.8,50.621Z" transform="translate(-0.654 -39.425)" fill="#3d296f"/>
    <path id="Path_58" data-name="Path 58" d="M186.911,63.35l-1.711-1V60.4l1.675-1,1.693,1v1.948Z" transform="translate(-151.485 -48.586)" fill="#88589f"/>
    <path id="Path_59" data-name="Path 59" d="M0,46.7,8.283,58.151v-2.33L2.694,46.7Z" transform="translate(0 -38.198)" fill="#523e90" opacity="0.8"/>
    <path id="Path_60" data-name="Path 60" d="M14.8,38.1l5.589,9.594v1.092L14.8,39.666Z" transform="translate(-12.106 -31.164)" fill="#3d296f"/>
    <path id="Path_61" data-name="Path 61" d="M99.074,39,90.918,60.518,90.9,39l4.151,2.439L99.074,39" transform="translate(-74.352 -31.9)" fill="#523e90"/>
    <path id="Path_62" data-name="Path 62" d="M95.051,9.539,90.9,7.1V2.4L94.978,0l4.1,2.4V7.1Z" transform="translate(-74.352)" fill="#88589f"/>
    <path id="Path_63" data-name="Path 63" d="M103.343,41.476,91,60.518,99.156,39Z" transform="translate(-74.434 -31.9)" fill="#88589f"/>
    <path id="Path_64" data-name="Path 64" d="M109.659,63.819l-3.259-1.93v-3.7l3.2-1.893,3.222,1.893v3.7Z" transform="translate(-87.03 -46.051)" fill="#9684bc" opacity="0.86"/>
    <path id="Path_65" data-name="Path 65" d="M180.143,66.848l-1.784,2.094H174.9l1.875-4.041v1.948l1.711,1Z" transform="translate(-143.06 -53.085)" fill="#664377"/>
    <path id="Path_66" data-name="Path 66" d="M1.365,36.949,0,36.148V34.583L1.347,33.8l1.347.783v1.566Z" transform="translate(0 -27.647)" fill="#523e90"/>
    <path id="Path_67" data-name="Path 67" d="M63.422,49.809,60.2,47.916V44.275L63.368,42.4l3.168,1.875v3.641Z" transform="translate(-49.241 -34.681)" fill="#5167ad"/>
    <path id="Path_68" data-name="Path 68" d="M66.535,72.7l-.728,15.383V75.358H60.2V72.7l3.222,1.893Z" transform="translate(-49.241 -59.465)" fill="#88589f"/>
    <path id="Path_69" data-name="Path 69" d="M117.965,5.749,116.6,4.93V3.383l1.347-.783,1.347.783V4.93Z" transform="translate(-95.373 -2.127)" fill="#726aad"/>
    <path id="Path_70" data-name="Path 70" d="M93.8,66.7,91,83.175l9.23-12.78-3.168,1.93L93.8,70.4Z" transform="translate(-74.434 -54.557)" fill="#5167ad"/>
    <path id="Path_71" data-name="Path 71" d="M137.2,37.043,135,35.75l.146-2.476L137.166,32l2.166,1.274V35.75Z" transform="translate(-110.424 -26.175)" fill="#5167ad"/>
    <path id="Path_72" data-name="Path 72" d="M135,75.763l15.984-19.3L148.235,54.9l-2.257,3.5-1.493,2.367h1.4Z" transform="translate(-110.424 -44.906)" fill="#5167ad"/>
    <path id="Path_73" data-name="Path 73" d="M209.1,53.622l-1.4-.837V51.219l1.384-.819,1.365.819v1.566Z" transform="translate(-169.889 -41.225)" fill="#664377"/>
  </g>
  <g id="Group_3" data-name="Group 3" transform="translate(1.438 31.003)">
    <path id="Path_74" data-name="Path 74" d="M200.232,254.738l-3.532-2.094v-3.987l3.477-2.057,3.477,2.057v3.987Z" transform="translate(-162.33 -232.71)" fill="#492f81"/>
    <path id="Path_75" data-name="Path 75" d="M109.933,209.088,91,182.8l16.239,27.671Z" transform="translate(-75.872 -180.524)" fill="#492f81"/>
    <g id="Group_2" data-name="Group 2" transform="translate(0 2.676)">
      <path id="Path_76" data-name="Path 76" d="M30.122,185,26.7,187.348l3.422,2.021Z" transform="translate(-23.278 -185)" fill="#3d296f"/>
      <path id="Path_77" data-name="Path 77" d="M11.377,205.91,7.9,203.853v-3.932l3.422-2.021,3.422,2.021v3.932Z" transform="translate(-7.9 -195.552)" fill="#88589f"/>
      <path id="Path_78" data-name="Path 78" d="M11.156,230.976,9.9,230.248v-1.42l1.238-.728,1.238.728v1.42Z" transform="translate(-9.536 -220.254)" fill="#523e90"/>
      <path id="Path_79" data-name="Path 79" d="M12.376,206.2l4.005-5.625V198.7L9.9,204.78l1.238-.728,1.238.728Z" transform="translate(-9.536 -196.206)" fill="#523e90"/>
    </g>
    <path id="Path_80" data-name="Path 80" d="M187.048,257.818,184.9,257.8l.182.564.728,1.256.819,1.438.419.746Z" transform="translate(-152.678 -241.871)" fill="#5167ad"/>
    <path id="Path_81" data-name="Path 81" d="M185.294,292.634l-2.494-1.456v-2.822l2.439-1.456,2.458,1.456v2.822Z" transform="translate(-150.96 -265.673)" fill="#5167ad"/>
    <path id="Path_82" data-name="Path 82" d="M91,182.8l7.591,24.686v-5.753l5.1-2.931,5.024,2.986-5.079-5.334h-2.767Z" transform="translate(-75.872 -180.524)" fill="#523e90"/>
    <path id="Path_83" data-name="Path 83" d="M156.942,264.554l-7.3-6.754H145.2l6.845,9.576v-2.822l2.439-1.456Z" transform="translate(-120.205 -241.871)" fill="#523e90" opacity="0.8"/>
    <path id="Path_84" data-name="Path 84" d="M179.066,264.5l-1.566-.91V261.81l1.529-.91,1.547.91v1.784Z" transform="translate(-146.625 -244.407)" fill="#88589f"/>
    <path id="Path_85" data-name="Path 85" d="M153.186,186.247,135,170.3l11.232,15.947,3.477-2.057Z" transform="translate(-111.862 -170.3)" fill="#5167ad" opacity="0.8"/>
    <path id="Path_86" data-name="Path 86" d="M94.859,272.566,91,270.29v-4.351l3.8-2.239,3.787,2.239v4.351Z" transform="translate(-75.872 -246.697)" fill="#88589f"/>
    <path id="Path_87" data-name="Path 87" d="M137.834,282.533l-5.134-3.149v-5.753l5.1-2.931,5.024,2.986v5.807Z" transform="translate(-109.981 -252.423)" fill="#88589f" opacity="0.9"/>
    <path id="Path_88" data-name="Path 88" d="M181.647,326.031l-1.347-.8v-1.547l1.329-.783,1.347.783v1.547Z" transform="translate(-148.915 -295.12)" fill="#726aad"/>
    <path id="Path_89" data-name="Path 89" d="M188.23,225.652l-2.33-1.384v-2.621l2.294-1.347,2.294,1.347v2.621Z" transform="translate(-153.496 -211.198)" fill="#9684bc" opacity="0.86"/>
    <path id="Path_90" data-name="Path 90" d="M146.56,179.4l2.294,1.347L135,170.3l9.266,13.071v-2.621Z" transform="translate(-111.862 -170.3)" fill="#5167ad"/>
    <path id="Path_91" data-name="Path 91" d="M91,182.8v16.967l3.8-2.239,3.787,2.239Z" transform="translate(-75.872 -180.524)" fill="#5167ad" opacity="0.9"/>
    <path id="Path_92" data-name="Path 92" d="M129.766,257.4l-1.566-.928V254.71l1.547-.91,1.638.874-.091,1.8Z" transform="translate(-106.3 -238.599)" fill="#664377"/>
    <path id="Path_93" data-name="Path 93" d="M100.958,196.6,91,182.8l6.772,15.6v-1.766l1.547-.91Z" transform="translate(-75.872 -180.524)" fill="#9684bc" opacity="0.86"/>
    <path id="Path_94" data-name="Path 94" d="M171.038,261.059,169.6,257.8h2.785l1.729,1.475-1.547-.91-1.529.91Z" transform="translate(-140.163 -241.871)" fill="#664377"/>
  </g>
  <g id="Group_6" data-name="Group 6" transform="translate(33.478 25.341)">
    <g id="Group_4" data-name="Group 4">
      <path id="Path_95" data-name="Path 95" d="M183.9,145.47v-.036a4.848,4.848,0,0,1,4.988-4.933,4.938,4.938,0,0,1,3.768,1.475l-1.329,1.547a3.492,3.492,0,0,0-2.439-1.074,2.826,2.826,0,0,0-2.767,2.967v.036a2.835,2.835,0,0,0,2.767,3,3.468,3.468,0,0,0,2.512-1.11l1.329,1.347a5.043,5.043,0,0,1-8.829-3.222Z" transform="translate(-183.9 -140.263)" fill="#606c71"/>
      <path id="Path_96" data-name="Path 96" d="M239.1,139.2h2.185v1.839H239.1Zm.055,2.64h2.075v7.318h-2.075Z" transform="translate(-229.051 -139.2)" fill="#606c71"/>
      <path id="Path_97" data-name="Path 97" d="M257.974,150.6v-3.459H257.1v-1.766h.874V143.5h2.075v1.875h1.729v1.766h-1.729v3.131c0,.473.2.71.674.71a2.065,2.065,0,0,0,1.019-.255v1.657a3.113,3.113,0,0,1-1.638.419C258.829,152.8,257.974,152.293,257.974,150.6Z" transform="translate(-243.774 -142.717)" fill="#606c71"/>
      <path id="Path_98" data-name="Path 98" d="M291.461,153.7h2.148l-2.8,7.5c-.564,1.493-1.165,2.039-2.4,2.039a3.306,3.306,0,0,1-1.839-.51l.692-1.493a1.911,1.911,0,0,0,.892.291.7.7,0,0,0,.728-.473L286,153.7h2.2l1.657,4.988Z" transform="translate(-267.413 -151.06)" fill="#606c71"/>
    </g>
    <g id="Group_5" data-name="Group 5">
      <path id="Path_99" data-name="Path 99" d="M183.9,145.47v-.036a4.848,4.848,0,0,1,4.988-4.933,4.938,4.938,0,0,1,3.768,1.475l-1.329,1.547a3.492,3.492,0,0,0-2.439-1.074,2.826,2.826,0,0,0-2.767,2.967v.036a2.835,2.835,0,0,0,2.767,3,3.468,3.468,0,0,0,2.512-1.11l1.329,1.347a5.043,5.043,0,0,1-8.829-3.222Z" transform="translate(-183.9 -140.263)" fill="#4d595f"/>
      <path id="Path_100" data-name="Path 100" d="M239.1,139.2h2.185v1.839H239.1Zm.055,2.64h2.075v7.318h-2.075Z" transform="translate(-229.051 -139.2)" fill="#4d595f"/>
      <path id="Path_101" data-name="Path 101" d="M257.974,150.6v-3.459H257.1v-1.766h.874V143.5h2.075v1.875h1.729v1.766h-1.729v3.131c0,.473.2.71.674.71a2.065,2.065,0,0,0,1.019-.255v1.657a3.113,3.113,0,0,1-1.638.419C258.829,152.8,257.974,152.293,257.974,150.6Z" transform="translate(-243.774 -142.717)" fill="#4d595f"/>
      <path id="Path_102" data-name="Path 102" d="M291.461,153.7h2.148l-2.8,7.5c-.564,1.493-1.165,2.039-2.4,2.039a3.306,3.306,0,0,1-1.839-.51l.692-1.493a1.911,1.911,0,0,0,.892.291.7.7,0,0,0,.728-.473L286,153.7h2.2l1.657,4.988Z" transform="translate(-267.413 -151.06)" fill="#4d595f"/>
    </g>
  </g>
  <g id="Group_8" data-name="Group 8" transform="translate(59.151 23.902)">
    <g id="Group_7" data-name="Group 7">
      <text id="_" data-name="+" transform="translate(0 6)" fill="#4d595e" font-size="8" font-family="Gotham-Bold, Gotham" font-weight="700"><tspan x="0" y="0">+</tspan></text>
    </g>
    <text id="_2" data-name="+" transform="translate(0 6)" fill="#4d595e" font-size="8" font-family="Gotham-Bold, Gotham" font-weight="700"><tspan x="0" y="0">+</tspan></text>
  </g>
  <g id="Group_11" data-name="Group 11" transform="translate(47.878 39.195)">
    <g id="Group_9" data-name="Group 9">
      <path id="Path_103" data-name="Path 103" d="M263.328,220.766v.218H263V219h.328v.783a.591.591,0,0,1,.492-.273.691.691,0,0,1,.674.746h0a.691.691,0,0,1-.674.746A.565.565,0,0,1,263.328,220.766Zm.819-.492h0a.428.428,0,0,0-.419-.473.433.433,0,0,0-.419.455h0a.433.433,0,0,0,.419.455A.4.4,0,0,0,264.147,220.274Z" transform="translate(-263 -218.326)" fill="#5f6b70"/>
      <path id="Path_104" data-name="Path 104" d="M272.747,222h.346l-.583,1.475c-.109.291-.237.4-.473.4a.7.7,0,0,1-.346-.091l.109-.237a.367.367,0,0,0,.2.055c.091,0,.146-.036.2-.164L271.6,222h.364l.4,1.074Z" transform="translate(-270.034 -220.78)" fill="#5f6b70"/>
      <path id="Path_105" data-name="Path 105" d="M286.5,215.9h.564v1.11l1.038-1.11h.674l-1.038,1.074,1.092,1.475h-.674l-.783-1.092-.291.309v.783h-.564V215.9Z" transform="translate(-282.222 -215.791)" fill="#5f6b70"/>
      <path id="Path_106" data-name="Path 106" d="M299.4,220.338h0c0-.437.328-.637.783-.637a1.616,1.616,0,0,1,.473.073v-.036c0-.237-.146-.364-.419-.364a1.33,1.33,0,0,0-.546.109l-.146-.419a1.766,1.766,0,0,1,.765-.164.835.835,0,0,1,.655.218.856.856,0,0,1,.218.619v1.129h-.528v-.218a.762.762,0,0,1-.583.255A.552.552,0,0,1,299.4,220.338Zm1.274-.127v-.091a.971.971,0,0,0-.346-.073c-.237,0-.382.091-.382.273h0c0,.146.127.237.309.237A.378.378,0,0,0,300.674,220.211Z" transform="translate(-292.773 -218.245)" fill="#5f6b70"/>
      <path id="Path_107" data-name="Path 107" d="M311.1,219.036h.546v.273a.707.707,0,0,1,.6-.309.923.923,0,0,1,.892,1h0a.9.9,0,0,1-.892,1,.715.715,0,0,1-.6-.291v.837H311.1Zm1.493.983h0a.478.478,0,1,0-.947,0h0a.5.5,0,0,0,.473.546A.513.513,0,0,0,312.593,220.02Z" transform="translate(-302.344 -218.326)" fill="#5f6b70"/>
      <path id="Path_108" data-name="Path 108" d="M323.2,220.02h0A1,1,0,0,1,324.219,219a.984.984,0,0,1,.783.328l-.346.364a.6.6,0,0,0-.437-.218.5.5,0,0,0-.473.528h0a.514.514,0,0,0,.492.546.652.652,0,0,0,.455-.2l.328.328a.989.989,0,0,1-.8.364A1.006,1.006,0,0,1,323.2,220.02Z" transform="translate(-312.241 -218.326)" fill="#5f6b70"/>
      <path id="Path_109" data-name="Path 109" d="M334.4,215.3h.583v.492H334.4Zm.018.71h.546v1.948h-.546Z" transform="translate(-321.402 -215.3)" fill="#5f6b70"/>
      <path id="Path_110" data-name="Path 110" d="M339.037,218.393v-.928H338.8v-.473h.237V216.5h.546v.492h.455v.473h-.455v.837c0,.127.055.182.182.182a.439.439,0,0,0,.273-.073v.437a.777.777,0,0,1-.437.109C339.273,218.976,339.037,218.848,339.037,218.393Z" transform="translate(-325.001 -216.282)" fill="#5f6b70"/>
      <path id="Path_111" data-name="Path 111" d="M346.6,220.02h0a.973.973,0,0,1,.965-1.019.946.946,0,0,1,.947,1.056v.146h-1.365a.453.453,0,0,0,.473.382.621.621,0,0,0,.473-.2l.309.273a.989.989,0,0,1-.8.364A.955.955,0,0,1,346.6,220.02Zm1.384-.164c-.036-.255-.182-.419-.419-.419s-.382.164-.419.419Z" transform="translate(-331.381 -218.326)" fill="#5f6b70"/>
    </g>
    <g id="Group_10" data-name="Group 10">
      <path id="Path_112" data-name="Path 112" d="M263.328,220.766v.218H263V219h.328v.783a.591.591,0,0,1,.492-.273.691.691,0,0,1,.674.746h0a.691.691,0,0,1-.674.746A.565.565,0,0,1,263.328,220.766Zm.819-.492h0a.428.428,0,0,0-.419-.473.433.433,0,0,0-.419.455h0a.433.433,0,0,0,.419.455A.4.4,0,0,0,264.147,220.274Z" transform="translate(-263 -218.326)" fill="#4d595e"/>
      <path id="Path_113" data-name="Path 113" d="M272.747,222h.346l-.583,1.475c-.109.291-.237.4-.473.4a.7.7,0,0,1-.346-.091l.109-.237a.367.367,0,0,0,.2.055c.091,0,.146-.036.2-.164L271.6,222h.364l.4,1.074Z" transform="translate(-270.034 -220.78)" fill="#4d595e"/>
      <path id="Path_114" data-name="Path 114" d="M286.5,215.9h.564v1.11l1.038-1.11h.674l-1.038,1.074,1.092,1.475h-.674l-.783-1.092-.291.309v.783h-.564V215.9Z" transform="translate(-282.222 -215.791)" fill="#4d595e"/>
      <path id="Path_115" data-name="Path 115" d="M299.4,220.338h0c0-.437.328-.637.783-.637a1.616,1.616,0,0,1,.473.073v-.036c0-.237-.146-.364-.419-.364a1.33,1.33,0,0,0-.546.109l-.146-.419a1.766,1.766,0,0,1,.765-.164.835.835,0,0,1,.655.218.856.856,0,0,1,.218.619v1.129h-.528v-.218a.762.762,0,0,1-.583.255A.552.552,0,0,1,299.4,220.338Zm1.274-.127v-.091a.971.971,0,0,0-.346-.073c-.237,0-.382.091-.382.273h0c0,.146.127.237.309.237A.378.378,0,0,0,300.674,220.211Z" transform="translate(-292.773 -218.245)" fill="#4d595e"/>
      <path id="Path_116" data-name="Path 116" d="M311.1,219.036h.546v.273a.707.707,0,0,1,.6-.309.923.923,0,0,1,.892,1h0a.9.9,0,0,1-.892,1,.715.715,0,0,1-.6-.291v.837H311.1Zm1.493.983h0a.478.478,0,1,0-.947,0h0a.5.5,0,0,0,.473.546A.513.513,0,0,0,312.593,220.02Z" transform="translate(-302.344 -218.326)" fill="#4d595e"/>
      <path id="Path_117" data-name="Path 117" d="M323.2,220.02h0A1,1,0,0,1,324.219,219a.984.984,0,0,1,.783.328l-.346.364a.6.6,0,0,0-.437-.218.5.5,0,0,0-.473.528h0a.514.514,0,0,0,.492.546.652.652,0,0,0,.455-.2l.328.328a.989.989,0,0,1-.8.364A1.006,1.006,0,0,1,323.2,220.02Z" transform="translate(-312.241 -218.326)" fill="#4d595e"/>
      <path id="Path_118" data-name="Path 118" d="M334.4,215.3h.583v.492H334.4Zm.018.71h.546v1.948h-.546Z" transform="translate(-321.402 -215.3)" fill="#4d595e"/>
      <path id="Path_119" data-name="Path 119" d="M339.037,218.393v-.928H338.8v-.473h.237V216.5h.546v.492h.455v.473h-.455v.837c0,.127.055.182.182.182a.439.439,0,0,0,.273-.073v.437a.777.777,0,0,1-.437.109C339.273,218.976,339.037,218.848,339.037,218.393Z" transform="translate(-325.001 -216.282)" fill="#4d595e"/>
      <path id="Path_120" data-name="Path 120" d="M346.6,220.02h0a.973.973,0,0,1,.965-1.019.946.946,0,0,1,.947,1.056v.146h-1.365a.453.453,0,0,0,.473.382.621.621,0,0,0,.473-.2l.309.273a.989.989,0,0,1-.8.364A.955.955,0,0,1,346.6,220.02Zm1.384-.164c-.036-.255-.182-.419-.419-.419s-.382.164-.419.419Z" transform="translate(-331.381 -218.326)" fill="#4d595e"/>
    </g>
  </g>
</svg>
