<svg xmlns="http://www.w3.org/2000/svg" width="38.897" height="38.81" viewBox="0 0 38.897 38.81">
  <g id="FdnEWJ.tif_1_" transform="translate(-0.003)">
    <g id="Group_40" data-name="Group 40">
      <path id="Path_219" data-name="Path 219" d="M38.8,6.9c-.9.9-.6,2.4-2,3a37,37,0,0,1-7.8-8c.6-1.6,2.6-.8,3.5-1.9H34c3.2.3,4.7,2.3,4.9,5.4A7.569,7.569,0,0,0,38.8,6.9Z" fill="#e94f43"/>
      <path id="Path_220" data-name="Path 220" d="M11.8,34.9c-.5.5-1,1-1.5,1.6h-.2C9.3,34.7,8.6,33,6,33.6c-.6.1-1-.8-.9-1.5.4-1.8-.1-2.8-2.1-2.8a.773.773,0,0,1-.7-.8c.4-.6.8-1.1,1.6-1,7.1-5,12.3-11.9,18.6-17.7a7.84,7.84,0,0,1,2.6-2.2,1.735,1.735,0,0,1,1.7,1.6c-.1.7-.7,1.1-1.1,1.5C20.3,16,15.1,21.3,9.8,26.6c-1.1,1.1-2.7,2.6-1.3,3.9,1.2,1.1,2.6-.5,3.7-1.5A76.668,76.668,0,0,1,18,23.4a4.82,4.82,0,0,0,2-2,10.448,10.448,0,0,1,2.1-2.1A6.34,6.34,0,0,0,24.4,17a6.479,6.479,0,0,1,1.7-1.6,6.34,6.34,0,0,0,2.3-2.3A2.03,2.03,0,0,1,29.7,12a1.818,1.818,0,0,1,1.6,1.7c-2.6,3.6-6.1,6.4-9.1,9.5-2.3,2.4-4.7,4.8-7.1,7.1A9.879,9.879,0,0,0,11.8,34.9Z" fill="#f3ba00"/>
      <path id="Path_221" data-name="Path 221" d="M2.3,28.4a1.011,1.011,0,0,0,1.3.4c2.4-.8,2.6.6,2.2,2.3s0,2.3,1.8,1.8,3-.1,2.3,2.2a1.31,1.31,0,0,0,.4,1.3c-3.1.7-6.1,1.5-9.2,2.2,0-.7-.3-1.1-1-1C.9,34.6,1.6,31.5,2.3,28.4Z" fill="#fbca99"/>
      <path id="Path_222" data-name="Path 222" d="M11.8,34.9a4.3,4.3,0,0,1,1.6-4c5.7-5.6,11.2-11.3,16.9-17,.2-.2.4-.2.7-.3,1.1,0,1.5.4,1,1.5-6,6-12.1,12-18.1,18C13.2,33.8,12.5,34.3,11.8,34.9Z" fill="#f08401"/>
      <path id="Path_223" data-name="Path 223" d="M25.2,7.9C19.1,14,13,20.1,7,26.2c-.9.9-2.1.8-3.1,1.3-.1-1.1.9-1.5,1.5-2.1,6-6.3,12.2-12.4,18.3-18.5C24.7,6.4,25.1,6.9,25.2,7.9Z" fill="#f08200"/>
      <path id="Path_224" data-name="Path 224" d="M29,1.9l7.9,7.9a3.121,3.121,0,0,1-1.5,1.5,1.651,1.651,0,0,1-1.5-.5C31.9,8.9,30,7,28.1,5c-.4-.4-.8-.9-.5-1.5A2.73,2.73,0,0,1,29,1.9Z" fill="#c9cac7"/>
      <path id="Path_225" data-name="Path 225" d="M25.2,7.9c-.3-.6-.7-1.1-1.5-1l1.8-1.5a31.22,31.22,0,0,1,7.9,7.9l-1.5,1.8c.1-.8-.4-1.2-1-1.5a3.159,3.159,0,0,0-1.4-1.4,5.676,5.676,0,0,1-2.9-3A3.531,3.531,0,0,0,25.2,7.9Z" fill="#f4ecbd"/>
      <path id="Path_226" data-name="Path 226" d="M27.5,3.4a98.147,98.147,0,0,0,7.9,7.9l-1,1c-.8.2-1.2-.3-1.7-.7C30.8,9.8,29,8,27.2,6.1c-.4-.5-.9-.9-.7-1.7A9.428,9.428,0,0,0,27.5,3.4Z" fill="#f4edbc"/>
      <path id="Path_227" data-name="Path 227" d="M26.5,4.4a98.147,98.147,0,0,0,7.9,7.9,9.428,9.428,0,0,1-1,1,84.149,84.149,0,0,1-7.9-7.9Z" fill="#c9ccc9"/>
      <path id="Path_228" data-name="Path 228" d="M.1,37.6c.2-.1.4-.3.6-.4.5-.3.9-1.3,1.5-.8.9.7-.3,1.1-.6,1.7-.1.2-.3.4-.4.6C.2,39-.2,38.7.1,37.6Z" fill="#314451"/>
      <path id="Path_229" data-name="Path 229" d="M26.5,9.3a9.222,9.222,0,0,1,2.9,3c-.3.4-.7.7-1,1.1a12.509,12.509,0,0,1-2.3,2.3l-1.6,1.6a12.509,12.509,0,0,1-2.3,2.3l-2.1,2.1a11.381,11.381,0,0,1-1.9,1.9c-2.3,2.3-4.6,4.6-6.8,7a3.763,3.763,0,0,1-3.4,1c-1.5-.1-.5-1.7-.7-2.6A1.8,1.8,0,0,1,8,27.5C14.3,21.4,20.4,15.4,26.5,9.3Z" fill="#f18400"/>
      <path id="Path_230" data-name="Path 230" d="M26.2,15.7a5.66,5.66,0,0,1,2.3-2.3A3.009,3.009,0,0,1,26.2,15.7Z" fill="#f7c413"/>
      <path id="Path_231" data-name="Path 231" d="M22.2,19.6a5.66,5.66,0,0,1,2.3-2.3A2.757,2.757,0,0,1,22.2,19.6Z" fill="#f7c413"/>
      <path id="Path_232" data-name="Path 232" d="M18.3,23.5a3.9,3.9,0,0,1,1.9-1.9A1.965,1.965,0,0,1,18.3,23.5Z" fill="#f8c413"/>
    </g>
  </g>
</svg>
