<svg id="Group_12" data-name="Group 12" xmlns="http://www.w3.org/2000/svg" width="153.35" height="144.813" viewBox="0 0 153.35 144.813">
  <g id="Group_1" data-name="Group 1">
    <path id="Path_49" data-name="Path 49" d="M10.508,70.554.8,64.849V53.863L10.338,48.2l9.58,5.663V64.849Z" transform="translate(-0.459 -27.677)" fill="#492f81"/>
    <path id="Path_50" data-name="Path 50" d="M101.9,6.9,91,70.9l17.2-60.378Z" transform="translate(-52.253 -3.962)" fill="#492f81"/>
    <path id="Path_51" data-name="Path 51" d="M171.192,82.5,135,117.075,163.188,78.2Z" transform="translate(-77.518 -44.903)" fill="#5167ad"/>
    <path id="Path_52" data-name="Path 52" d="M146.721,35.7,136.8,57.586h24.313l4.9-10.773Z" transform="translate(-78.551 -20.499)" fill="#5167ad" opacity="0.8"/>
    <path id="Path_53" data-name="Path 53" d="M34.7,36.868l7.579,17.415h9.155L47.005,29.8Z" transform="translate(-19.925 -17.111)" fill="#5167ad"/>
    <path id="Path_54" data-name="Path 54" d="M40.917,35.649,34.7,31.987V24.919L40.831,21.3l6.174,3.619v7.068Z" transform="translate(-19.925 -12.231)" fill="#88589f"/>
    <path id="Path_55" data-name="Path 55" d="M169.893,44.967,160.1,39.176V28.063l9.623-5.663,9.666,5.663V39.176Z" transform="translate(-91.93 -12.862)" fill="#492f81"/>
    <path id="Path_56" data-name="Path 56" d="M200.335,79.048,194.8,75.386l.213-5.535L200.25,66.7l5.28,3.151V75.9Z" transform="translate(-111.855 -38.3)" fill="#9684bc" opacity="0.86"/>
    <path id="Path_57" data-name="Path 57" d="M.8,64.849,19.833,82.774V64.849h4.939L19.918,53.863,10.338,48.2.8,53.863Z" transform="translate(-0.459 -27.677)" fill="#3d296f"/>
    <path id="Path_58" data-name="Path 58" d="M189.2,68.64l-4-2.342V61.742l3.917-2.342,3.96,2.342V66.3Z" transform="translate(-106.343 -34.108)" fill="#88589f"/>
    <path id="Path_59" data-name="Path 59" d="M0,46.7,19.374,73.482v-5.45L6.3,46.7Z" transform="translate(0 -26.815)" fill="#523e90" opacity="0.8"/>
    <path id="Path_60" data-name="Path 60" d="M14.8,38.1,27.872,60.539v2.555L14.8,41.762Z" transform="translate(-8.498 -21.877)" fill="#3d296f"/>
    <path id="Path_61" data-name="Path 61" d="M110.018,39,90.943,89.329,90.9,39l9.708,5.706L110.018,39" transform="translate(-52.195 -22.394)" fill="#523e90"/>
    <path id="Path_62" data-name="Path 62" d="M100.608,22.312,90.9,16.606V5.62L100.438,0l9.58,5.62V16.606Z" transform="translate(-52.195)" fill="#88589f"/>
    <path id="Path_63" data-name="Path 63" d="M119.869,44.791,91,89.329,110.076,39Z" transform="translate(-52.253 -22.394)" fill="#88589f"/>
    <path id="Path_64" data-name="Path 64" d="M114.022,73.885,106.4,69.372V60.728l7.494-4.428,7.537,4.428v8.644Z" transform="translate(-61.096 -32.328)" fill="#9684bc" opacity="0.86"/>
    <path id="Path_65" data-name="Path 65" d="M187.163,69.456l-4.173,4.9H174.9l4.386-9.453v4.556l4,2.342Z" transform="translate(-100.429 -37.266)" fill="#664377"/>
    <path id="Path_66" data-name="Path 66" d="M3.193,41.166,0,39.293V35.631L3.151,33.8,6.3,35.631v3.662Z" transform="translate(0 -19.408)" fill="#523e90"/>
    <path id="Path_67" data-name="Path 67" d="M67.737,59.73,60.2,55.3V46.786L67.609,42.4l7.409,4.386V55.3Z" transform="translate(-34.567 -24.346)" fill="#5167ad"/>
    <path id="Path_68" data-name="Path 68" d="M75.018,72.7l-1.7,35.98V78.917H60.2V72.7l7.537,4.428Z" transform="translate(-34.567 -41.745)" fill="#88589f"/>
    <path id="Path_69" data-name="Path 69" d="M119.793,9.966,116.6,8.05V4.431L119.751,2.6,122.9,4.431V8.05Z" transform="translate(-66.952 -1.493)" fill="#726aad"/>
    <path id="Path_70" data-name="Path 70" d="M97.557,66.7,91,105.234l21.588-29.891-7.409,4.513-7.622-4.513Z" transform="translate(-52.253 -38.3)" fill="#5167ad"/>
    <path id="Path_71" data-name="Path 71" d="M140.152,43.794,135,40.771l.341-5.791L140.067,32l5.067,2.981v5.791Z" transform="translate(-77.518 -18.375)" fill="#5167ad"/>
    <path id="Path_72" data-name="Path 72" d="M135,103.7l37.385-45.134L165.955,54.9l-5.28,8.175-3.492,5.535h3.279Z" transform="translate(-77.518 -31.524)" fill="#5167ad"/>
    <path id="Path_73" data-name="Path 73" d="M210.979,57.937,207.7,55.978V52.316l3.236-1.916,3.193,1.916v3.662Z" transform="translate(-119.263 -28.94)" fill="#664377"/>
  </g>
  <g id="Group_3" data-name="Group 3" transform="translate(3.364 72.513)">
    <path id="Path_74" data-name="Path 74" d="M204.96,265.633l-8.26-4.9v-9.325l8.133-4.811,8.133,4.811v9.325Z" transform="translate(-116.31 -214.112)" fill="#492f81"/>
    <path id="Path_75" data-name="Path 75" d="M135.283,244.285,91,182.8l37.981,64.721Z" transform="translate(-55.617 -177.478)" fill="#492f81"/>
    <g id="Group_2" data-name="Group 2" transform="translate(0 6.259)">
      <path id="Path_76" data-name="Path 76" d="M34.7,185l-8,5.493,8,4.726Z" transform="translate(-18.695 -185)" fill="#3d296f"/>
      <path id="Path_77" data-name="Path 77" d="M16.033,216.635,7.9,211.823v-9.2l8-4.726,8,4.726v9.2Z" transform="translate(-7.9 -192.407)" fill="#88589f"/>
      <path id="Path_78" data-name="Path 78" d="M12.838,234.828l-2.938-1.7V229.8l2.9-1.7,2.9,1.7v3.321Z" transform="translate(-9.048 -209.748)" fill="#523e90"/>
      <path id="Path_79" data-name="Path 79" d="M15.691,216.243l9.367-13.157V198.7L9.9,212.922l2.9-1.7,2.9,1.7Z" transform="translate(-9.048 -192.867)" fill="#523e90"/>
    </g>
    <path id="Path_80" data-name="Path 80" d="M189.924,257.843,184.9,257.8l.426,1.32,1.7,2.938,1.916,3.364.979,1.746Z" transform="translate(-109.534 -220.543)" fill="#5167ad"/>
    <path id="Path_81" data-name="Path 81" d="M188.633,300.313l-5.833-3.406v-6.6l5.706-3.406,5.748,3.406v6.6Z" transform="translate(-108.329 -237.252)" fill="#5167ad"/>
    <path id="Path_82" data-name="Path 82" d="M91,182.8l17.756,57.738V227.083l11.922-6.855,11.752,6.983-11.88-12.476h-6.472Z" transform="translate(-55.617 -177.478)" fill="#523e90"/>
    <path id="Path_83" data-name="Path 83" d="M172.664,273.6l-17.074-15.8H145.2l16.01,22.4v-6.6l5.706-3.406Z" transform="translate(-86.739 -220.543)" fill="#523e90" opacity="0.8"/>
    <path id="Path_84" data-name="Path 84" d="M181.162,269.331,177.5,267.2v-4.173l3.577-2.129,3.619,2.129V267.2Z" transform="translate(-105.285 -222.323)" fill="#88589f"/>
    <path id="Path_85" data-name="Path 85" d="M177.537,207.6,135,170.3l26.271,37.3,8.133-4.811Z" transform="translate(-80.882 -170.3)" fill="#5167ad" opacity="0.8"/>
    <path id="Path_86" data-name="Path 86" d="M100.027,284.436,91,279.114V268.937l8.9-5.237,8.857,5.237v10.177Z" transform="translate(-55.617 -223.931)" fill="#88589f"/>
    <path id="Path_87" data-name="Path 87" d="M144.707,298.377,132.7,291.01V277.555l11.922-6.855,11.752,6.983v13.583Z" transform="translate(-79.561 -227.95)" fill="#88589f" opacity="0.9"/>
    <path id="Path_88" data-name="Path 88" d="M183.451,330.224,180.3,328.35v-3.619l3.108-1.831,3.151,1.831v3.619Z" transform="translate(-106.893 -257.924)" fill="#726aad"/>
    <path id="Path_89" data-name="Path 89" d="M191.35,232.818l-5.45-3.236v-6.131l5.365-3.151,5.365,3.151v6.131Z" transform="translate(-110.109 -199.01)" fill="#9684bc" opacity="0.86"/>
    <path id="Path_90" data-name="Path 90" d="M162.038,191.59l5.365,3.151L135,170.3l21.673,30.572v-6.131Z" transform="translate(-80.882 -170.3)" fill="#5167ad"/>
    <path id="Path_91" data-name="Path 91" d="M91,182.8v39.684l8.9-5.237,8.857,5.237Z" transform="translate(-55.617 -177.478)" fill="#5167ad" opacity="0.9"/>
    <path id="Path_92" data-name="Path 92" d="M131.862,262.231l-3.662-2.172v-4.13l3.619-2.129,3.832,2.044-.213,4.215Z" transform="translate(-76.977 -218.246)" fill="#664377"/>
    <path id="Path_93" data-name="Path 93" d="M114.291,215.075,91,182.8l15.84,36.491v-4.13l3.619-2.129Z" transform="translate(-55.617 -177.478)" fill="#9684bc" opacity="0.86"/>
    <path id="Path_94" data-name="Path 94" d="M172.964,265.422,169.6,257.8h6.515l4.045,3.449-3.619-2.129-3.577,2.129Z" transform="translate(-100.749 -220.543)" fill="#664377"/>
  </g>
  <g id="Group_6" data-name="Group 6" transform="translate(78.303 59.271)">
    <g id="Group_4" data-name="Group 4">
      <path id="Path_95" data-name="Path 95" d="M183.9,152.124v-.085A11.34,11.34,0,0,1,195.567,140.5a11.55,11.55,0,0,1,8.814,3.449l-3.108,3.619a8.168,8.168,0,0,0-5.706-2.512c-3.747,0-6.472,3.108-6.472,6.94v.085c0,3.832,2.64,7.026,6.472,7.026,2.555,0,4.13-1.022,5.876-2.6l3.108,3.151a11.8,11.8,0,0,1-20.651-7.537Z" transform="translate(-183.9 -139.946)" fill="#606c71"/>
      <path id="Path_96" data-name="Path 96" d="M239.1,139.2h5.11v4.3H239.1Zm.128,6.174h4.854v17.117h-4.854Z" transform="translate(-215.596 -139.2)" fill="#606c71"/>
      <path id="Path_97" data-name="Path 97" d="M259.144,160.106v-8.09H257.1v-4.13h2.044V143.5H264v4.386h4.045v4.13H264v7.324c0,1.107.468,1.661,1.575,1.661a4.83,4.83,0,0,0,2.384-.6v3.875a7.282,7.282,0,0,1-3.832.979C261.145,165.258,259.144,164.066,259.144,160.106Z" transform="translate(-225.932 -141.669)" fill="#606c71"/>
      <path id="Path_98" data-name="Path 98" d="M298.774,153.7H303.8l-6.557,17.543c-1.32,3.492-2.725,4.769-5.62,4.769a7.734,7.734,0,0,1-4.3-1.192l1.618-3.492a4.47,4.47,0,0,0,2.086.681,1.629,1.629,0,0,0,1.7-1.107L286,153.7h5.152l3.875,11.667Z" transform="translate(-242.526 -147.526)" fill="#606c71"/>
    </g>
    <g id="Group_5" data-name="Group 5">
      <path id="Path_99" data-name="Path 99" d="M183.9,152.124v-.085A11.34,11.34,0,0,1,195.567,140.5a11.55,11.55,0,0,1,8.814,3.449l-3.108,3.619a8.168,8.168,0,0,0-5.706-2.512c-3.747,0-6.472,3.108-6.472,6.94v.085c0,3.832,2.64,7.026,6.472,7.026,2.555,0,4.13-1.022,5.876-2.6l3.108,3.151a11.8,11.8,0,0,1-20.651-7.537Z" transform="translate(-183.9 -139.946)" fill="#4d595f"/>
      <path id="Path_100" data-name="Path 100" d="M239.1,139.2h5.11v4.3H239.1Zm.128,6.174h4.854v17.117h-4.854Z" transform="translate(-215.596 -139.2)" fill="#4d595f"/>
      <path id="Path_101" data-name="Path 101" d="M259.144,160.106v-8.09H257.1v-4.13h2.044V143.5H264v4.386h4.045v4.13H264v7.324c0,1.107.468,1.661,1.575,1.661a4.83,4.83,0,0,0,2.384-.6v3.875a7.282,7.282,0,0,1-3.832.979C261.145,165.258,259.144,164.066,259.144,160.106Z" transform="translate(-225.932 -141.669)" fill="#4d595f"/>
      <path id="Path_102" data-name="Path 102" d="M298.774,153.7H303.8l-6.557,17.543c-1.32,3.492-2.725,4.769-5.62,4.769a7.734,7.734,0,0,1-4.3-1.192l1.618-3.492a4.47,4.47,0,0,0,2.086.681,1.629,1.629,0,0,0,1.7-1.107L286,153.7h5.152l3.875,11.667Z" transform="translate(-242.526 -147.526)" fill="#4d595f"/>
    </g>
  </g>
  <g id="Group_8" data-name="Group 8" transform="translate(138.35 55.904)">
    <g id="Group_7" data-name="Group 7">
      <text id="_" data-name="+" transform="translate(0 18)" fill="#4d595e" font-size="22" font-family="Gotham-Bold, Gotham" font-weight="700"><tspan x="0" y="0">+</tspan></text>
    </g>
    <text id="_2" data-name="+" transform="translate(0 18)" fill="#4d595e" font-size="22" font-family="Gotham-Bold, Gotham" font-weight="700"><tspan x="0" y="0">+</tspan></text>
  </g>
  <g id="Group_11" data-name="Group 11" transform="translate(111.984 91.673)">
    <g id="Group_9" data-name="Group 9">
      <path id="Path_103" data-name="Path 103" d="M263.766,223.13v.511H263V219h.766v1.831a1.382,1.382,0,0,1,1.15-.639,1.617,1.617,0,0,1,1.575,1.746h0a1.617,1.617,0,0,1-1.575,1.746A1.32,1.32,0,0,1,263.766,223.13Zm1.916-1.15h0a1,1,0,0,0-.979-1.107,1.012,1.012,0,0,0-.979,1.064h0A1.012,1.012,0,0,0,264.7,223,.928.928,0,0,0,265.682,221.981Z" transform="translate(-263 -217.425)" fill="#5f6b70"/>
      <path id="Path_104" data-name="Path 104" d="M274.283,222h.809l-1.363,3.449c-.255.681-.554.937-1.107.937a1.631,1.631,0,0,1-.809-.213l.255-.554a.858.858,0,0,0,.468.128c.213,0,.341-.085.468-.383L271.6,222h.852l.937,2.512Z" transform="translate(-267.938 -219.147)" fill="#5f6b70"/>
      <path id="Path_105" data-name="Path 105" d="M286.5,215.9h1.32v2.6l2.427-2.6h1.575l-2.427,2.512,2.555,3.449h-1.576l-1.831-2.555-.681.724v1.831h-1.32V215.9Z" transform="translate(-276.494 -215.645)" fill="#5f6b70"/>
      <path id="Path_106" data-name="Path 106" d="M299.4,222.264h0c0-1.022.766-1.49,1.831-1.49a3.779,3.779,0,0,1,1.107.17v-.085c0-.554-.341-.852-.979-.852a3.111,3.111,0,0,0-1.277.255l-.341-.979a4.13,4.13,0,0,1,1.788-.383,1.954,1.954,0,0,1,1.533.511,2,2,0,0,1,.511,1.448v2.64h-1.235v-.511a1.782,1.782,0,0,1-1.363.6A1.292,1.292,0,0,1,299.4,222.264Zm2.981-.3v-.213a2.27,2.27,0,0,0-.809-.17c-.553,0-.894.213-.894.639h0c0,.341.3.554.724.554A.884.884,0,0,0,302.381,221.966Z" transform="translate(-283.901 -217.367)" fill="#5f6b70"/>
      <path id="Path_107" data-name="Path 107" d="M311.1,219.085h1.277v.639a1.655,1.655,0,0,1,1.405-.724,2.159,2.159,0,0,1,2.086,2.342h0a2.111,2.111,0,0,1-2.086,2.342,1.673,1.673,0,0,1-1.405-.681v1.959H311.1Zm3.491,2.3h0a1.118,1.118,0,1,0-2.214,0h0a1.174,1.174,0,0,0,1.107,1.277A1.2,1.2,0,0,0,314.591,221.384Z" transform="translate(-290.619 -217.425)" fill="#5f6b70"/>
      <path id="Path_108" data-name="Path 108" d="M323.2,221.384h0A2.328,2.328,0,0,1,325.584,219a2.3,2.3,0,0,1,1.831.766l-.809.852a1.4,1.4,0,0,0-1.022-.511,1.159,1.159,0,0,0-1.107,1.235h0a1.2,1.2,0,0,0,1.15,1.277,1.524,1.524,0,0,0,1.064-.468l.766.766a2.314,2.314,0,0,1-1.874.852A2.354,2.354,0,0,1,323.2,221.384Z" transform="translate(-297.567 -217.425)" fill="#5f6b70"/>
      <path id="Path_109" data-name="Path 109" d="M334.4,215.3h1.363v1.15H334.4Zm.043,1.661h1.277v4.556h-1.277Z" transform="translate(-303.998 -215.3)" fill="#5f6b70"/>
      <path id="Path_110" data-name="Path 110" d="M339.354,220.928v-2.172H338.8V217.65h.554V216.5h1.277v1.15H341.7v1.107h-1.064v1.959c0,.3.128.426.426.426a1.026,1.026,0,0,0,.639-.17v1.022a1.816,1.816,0,0,1-1.022.255C339.907,222.291,339.354,221.993,339.354,220.928Z" transform="translate(-306.525 -215.989)" fill="#5f6b70"/>
      <path id="Path_111" data-name="Path 111" d="M346.6,221.384h0A2.275,2.275,0,0,1,348.857,219a2.213,2.213,0,0,1,2.214,2.47v.341h-3.193a1.06,1.06,0,0,0,1.107.894,1.452,1.452,0,0,0,1.107-.468l.724.639a2.313,2.313,0,0,1-1.873.852A2.235,2.235,0,0,1,346.6,221.384Zm3.236-.383c-.085-.6-.426-.979-.979-.979s-.894.383-.979.979Z" transform="translate(-311.004 -217.425)" fill="#5f6b70"/>
    </g>
    <g id="Group_10" data-name="Group 10">
      <path id="Path_112" data-name="Path 112" d="M263.766,223.13v.511H263V219h.766v1.831a1.382,1.382,0,0,1,1.15-.639,1.617,1.617,0,0,1,1.575,1.746h0a1.617,1.617,0,0,1-1.575,1.746A1.32,1.32,0,0,1,263.766,223.13Zm1.916-1.15h0a1,1,0,0,0-.979-1.107,1.012,1.012,0,0,0-.979,1.064h0A1.012,1.012,0,0,0,264.7,223,.928.928,0,0,0,265.682,221.981Z" transform="translate(-263 -217.425)" fill="#4d595e"/>
      <path id="Path_113" data-name="Path 113" d="M274.283,222h.809l-1.363,3.449c-.255.681-.554.937-1.107.937a1.631,1.631,0,0,1-.809-.213l.255-.554a.858.858,0,0,0,.468.128c.213,0,.341-.085.468-.383L271.6,222h.852l.937,2.512Z" transform="translate(-267.938 -219.147)" fill="#4d595e"/>
      <path id="Path_114" data-name="Path 114" d="M286.5,215.9h1.32v2.6l2.427-2.6h1.575l-2.427,2.512,2.555,3.449h-1.576l-1.831-2.555-.681.724v1.831h-1.32V215.9Z" transform="translate(-276.494 -215.645)" fill="#4d595e"/>
      <path id="Path_115" data-name="Path 115" d="M299.4,222.264h0c0-1.022.766-1.49,1.831-1.49a3.779,3.779,0,0,1,1.107.17v-.085c0-.554-.341-.852-.979-.852a3.111,3.111,0,0,0-1.277.255l-.341-.979a4.13,4.13,0,0,1,1.788-.383,1.954,1.954,0,0,1,1.533.511,2,2,0,0,1,.511,1.448v2.64h-1.235v-.511a1.782,1.782,0,0,1-1.363.6A1.292,1.292,0,0,1,299.4,222.264Zm2.981-.3v-.213a2.27,2.27,0,0,0-.809-.17c-.553,0-.894.213-.894.639h0c0,.341.3.554.724.554A.884.884,0,0,0,302.381,221.966Z" transform="translate(-283.901 -217.367)" fill="#4d595e"/>
      <path id="Path_116" data-name="Path 116" d="M311.1,219.085h1.277v.639a1.655,1.655,0,0,1,1.405-.724,2.159,2.159,0,0,1,2.086,2.342h0a2.111,2.111,0,0,1-2.086,2.342,1.673,1.673,0,0,1-1.405-.681v1.959H311.1Zm3.491,2.3h0a1.118,1.118,0,1,0-2.214,0h0a1.174,1.174,0,0,0,1.107,1.277A1.2,1.2,0,0,0,314.591,221.384Z" transform="translate(-290.619 -217.425)" fill="#4d595e"/>
      <path id="Path_117" data-name="Path 117" d="M323.2,221.384h0A2.328,2.328,0,0,1,325.584,219a2.3,2.3,0,0,1,1.831.766l-.809.852a1.4,1.4,0,0,0-1.022-.511,1.159,1.159,0,0,0-1.107,1.235h0a1.2,1.2,0,0,0,1.15,1.277,1.524,1.524,0,0,0,1.064-.468l.766.766a2.314,2.314,0,0,1-1.874.852A2.354,2.354,0,0,1,323.2,221.384Z" transform="translate(-297.567 -217.425)" fill="#4d595e"/>
      <path id="Path_118" data-name="Path 118" d="M334.4,215.3h1.363v1.15H334.4Zm.043,1.661h1.277v4.556h-1.277Z" transform="translate(-303.998 -215.3)" fill="#4d595e"/>
      <path id="Path_119" data-name="Path 119" d="M339.354,220.928v-2.172H338.8V217.65h.554V216.5h1.277v1.15H341.7v1.107h-1.064v1.959c0,.3.128.426.426.426a1.026,1.026,0,0,0,.639-.17v1.022a1.816,1.816,0,0,1-1.022.255C339.907,222.291,339.354,221.993,339.354,220.928Z" transform="translate(-306.525 -215.989)" fill="#4d595e"/>
      <path id="Path_120" data-name="Path 120" d="M346.6,221.384h0A2.275,2.275,0,0,1,348.857,219a2.213,2.213,0,0,1,2.214,2.47v.341h-3.193a1.06,1.06,0,0,0,1.107.894,1.452,1.452,0,0,0,1.107-.468l.724.639a2.313,2.313,0,0,1-1.873.852A2.235,2.235,0,0,1,346.6,221.384Zm3.236-.383c-.085-.6-.426-.979-.979-.979s-.894.383-.979.979Z" transform="translate(-311.004 -217.425)" fill="#4d595e"/>
    </g>
  </g>
</svg>
