<svg id="Group_12" data-name="Group 12" xmlns="http://www.w3.org/2000/svg" width="102.552" height="97.67" viewBox="0 0 102.552 97.67">
  <g id="Group_1" data-name="Group 1">
    <path id="Path_49" data-name="Path 49" d="M7.348,63.277.8,59.429V52.019L7.233,48.2l6.462,3.819v7.409Z" transform="translate(-0.57 -34.358)" fill="#492f81"/>
    <path id="Path_50" data-name="Path 50" d="M98.352,6.9,91,50.063,102.6,9.341Z" transform="translate(-64.867 -4.918)" fill="#492f81"/>
    <path id="Path_51" data-name="Path 51" d="M159.41,81.1,135,104.419,154.011,78.2Z" transform="translate(-96.231 -55.743)" fill="#5167ad"/>
    <path id="Path_52" data-name="Path 52" d="M143.491,35.7,136.8,50.461h16.4l3.3-7.266Z" transform="translate(-97.514 -25.448)" fill="#5167ad" opacity="0.8"/>
    <path id="Path_53" data-name="Path 53" d="M34.7,34.567l5.112,11.746h6.174L43,29.8Z" transform="translate(-24.735 -21.242)" fill="#5167ad"/>
    <path id="Path_54" data-name="Path 54" d="M38.893,30.978,34.7,28.508V23.741L38.835,21.3,43,23.741v4.767Z" transform="translate(-24.735 -15.183)" fill="#88589f"/>
    <path id="Path_55" data-name="Path 55" d="M166.705,37.621,160.1,33.715v-7.5l6.49-3.819,6.519,3.819v7.5Z" transform="translate(-114.123 -15.967)" fill="#492f81"/>
    <path id="Path_56" data-name="Path 56" d="M198.533,75.028l-3.733-2.47.144-3.733,3.532-2.125,3.561,2.125V72.9Z" transform="translate(-138.857 -47.545)" fill="#9684bc" opacity="0.86"/>
    <path id="Path_57" data-name="Path 57" d="M.8,59.429l12.837,12.09V59.429h3.331l-3.274-7.409L7.233,48.2.8,52.019Z" transform="translate(-0.57 -34.358)" fill="#3d296f"/>
    <path id="Path_58" data-name="Path 58" d="M187.9,65.632l-2.7-1.579V60.979l2.642-1.579,2.671,1.579v3.073Z" transform="translate(-132.014 -42.342)" fill="#88589f"/>
    <path id="Path_59" data-name="Path 59" d="M0,46.7,13.067,64.764V61.088L4.25,46.7Z" transform="translate(0 -33.289)" fill="#523e90" opacity="0.8"/>
    <path id="Path_60" data-name="Path 60" d="M14.8,38.1l8.816,15.134v1.723L14.8,40.57Z" transform="translate(-10.55 -27.158)" fill="#3d296f"/>
    <path id="Path_61" data-name="Path 61" d="M103.794,39,90.929,72.945,90.9,39l6.548,3.848L103.794,39" transform="translate(-64.795 -27.8)" fill="#523e90"/>
    <path id="Path_62" data-name="Path 62" d="M97.448,15.048,90.9,11.2V3.791L97.333,0l6.462,3.791V11.2Z" transform="translate(-64.795)" fill="#88589f"/>
    <path id="Path_63" data-name="Path 63" d="M110.471,42.906,91,72.945,103.866,39Z" transform="translate(-64.867 -27.8)" fill="#88589f"/>
    <path id="Path_64" data-name="Path 64" d="M111.541,68.161,106.4,65.116v-5.83l5.054-2.987,5.083,2.987v5.83Z" transform="translate(-75.844 -40.132)" fill="#9684bc" opacity="0.86"/>
    <path id="Path_65" data-name="Path 65" d="M183.171,67.973l-2.814,3.3H174.9l2.958-6.375v3.073l2.7,1.579Z" transform="translate(-124.672 -46.262)" fill="#664377"/>
    <path id="Path_66" data-name="Path 66" d="M2.154,38.768,0,37.5v-2.47L2.125,33.8,4.25,35.035V37.5Z" transform="translate(0 -24.093)" fill="#523e90"/>
    <path id="Path_67" data-name="Path 67" d="M65.283,54.088,60.2,51.1V45.358l5-2.958,5,2.958V51.1Z" transform="translate(-42.912 -30.224)" fill="#5167ad"/>
    <path id="Path_68" data-name="Path 68" d="M70.194,72.7,69.045,96.967V76.893H60.2V72.7l5.083,2.987Z" transform="translate(-42.912 -51.822)" fill="#88589f"/>
    <path id="Path_69" data-name="Path 69" d="M118.754,7.568,116.6,6.276V3.835L118.725,2.6l2.125,1.235V6.276Z" transform="translate(-83.115 -1.853)" fill="#726aad"/>
    <path id="Path_70" data-name="Path 70" d="M95.423,66.7,91,92.69l14.56-20.16-5,3.044L95.423,72.53Z" transform="translate(-64.867 -47.545)" fill="#5167ad"/>
    <path id="Path_71" data-name="Path 71" d="M138.475,39.955,135,37.916l.23-3.906L138.417,32l3.417,2.01v3.906Z" transform="translate(-96.231 -22.81)" fill="#5167ad"/>
    <path id="Path_72" data-name="Path 72" d="M135,87.811,160.214,57.37l-4.336-2.47-3.561,5.514-2.355,3.733h2.211Z" transform="translate(-96.231 -39.134)" fill="#5167ad"/>
    <path id="Path_73" data-name="Path 73" d="M209.911,55.483,207.7,54.162v-2.47l2.183-1.292,2.154,1.292v2.47Z" transform="translate(-148.053 -35.926)" fill="#664377"/>
  </g>
  <g id="Group_3" data-name="Group 3" transform="translate(2.269 48.907)">
    <path id="Path_74" data-name="Path 74" d="M202.271,259.437l-5.571-3.3v-6.289l5.485-3.245,5.485,3.245v6.289Z" transform="translate(-142.48 -224.688)" fill="#492f81"/>
    <path id="Path_75" data-name="Path 75" d="M120.867,224.269,91,182.8l25.616,43.651Z" transform="translate(-67.135 -179.21)" fill="#492f81"/>
    <g id="Group_2" data-name="Group 2" transform="translate(0 4.222)">
      <path id="Path_76" data-name="Path 76" d="M32.1,185l-5.4,3.7,5.4,3.188Z" transform="translate(-21.301 -185)" fill="#3d296f"/>
      <path id="Path_77" data-name="Path 77" d="M13.385,210.536,7.9,207.291v-6.2l5.4-3.188,5.4,3.188v6.2Z" transform="translate(-7.9 -194.195)" fill="#88589f"/>
      <path id="Path_78" data-name="Path 78" d="M11.882,232.637,9.9,231.489v-2.24l1.953-1.149,1.953,1.149v2.24Z" transform="translate(-9.326 -215.723)" fill="#523e90"/>
      <path id="Path_79" data-name="Path 79" d="M13.806,210.532l6.318-8.874V198.7L9.9,208.292l1.953-1.149,1.953,1.149Z" transform="translate(-9.326 -194.766)" fill="#523e90"/>
    </g>
    <path id="Path_80" data-name="Path 80" d="M188.289,257.829,184.9,257.8l.287.89,1.149,1.982,1.292,2.269.661,1.177Z" transform="translate(-134.069 -232.672)" fill="#5167ad"/>
    <path id="Path_81" data-name="Path 81" d="M186.734,295.946l-3.934-2.3V289.2l3.848-2.3,3.877,2.3v4.451Z" transform="translate(-132.572 -253.415)" fill="#5167ad"/>
    <path id="Path_82" data-name="Path 82" d="M91,182.8l11.975,38.942v-9.075l8.041-4.624,7.926,4.71-8.012-8.414h-4.365Z" transform="translate(-67.135 -179.21)" fill="#523e90"/>
    <path id="Path_83" data-name="Path 83" d="M163.723,268.454,152.207,257.8H145.2L156,272.906v-4.451l3.848-2.3Z" transform="translate(-105.77 -232.672)" fill="#523e90" opacity="0.8"/>
    <path id="Path_84" data-name="Path 84" d="M179.97,266.586l-2.47-1.436v-2.814l2.412-1.436,2.441,1.436v2.814Z" transform="translate(-128.794 -234.882)" fill="#88589f"/>
    <path id="Path_85" data-name="Path 85" d="M163.689,195.457,135,170.3l17.719,25.157,5.485-3.245Z" transform="translate(-98.499 -170.3)" fill="#5167ad" opacity="0.8"/>
    <path id="Path_86" data-name="Path 86" d="M97.088,277.686,91,274.1v-6.864l6-3.532,5.973,3.532V274.1Z" transform="translate(-67.135 -236.877)" fill="#88589f"/>
    <path id="Path_87" data-name="Path 87" d="M140.8,289.367l-8.1-4.968v-9.075l8.041-4.624,7.926,4.71v9.161Z" transform="translate(-96.86 -241.867)" fill="#88589f" opacity="0.9"/>
    <path id="Path_88" data-name="Path 88" d="M182.425,327.839l-2.125-1.264v-2.441l2.1-1.235,2.125,1.235v2.441Z" transform="translate(-130.79 -279.076)" fill="#726aad"/>
    <path id="Path_89" data-name="Path 89" d="M189.576,228.743l-3.676-2.183v-4.135l3.618-2.125,3.618,2.125v4.135Z" transform="translate(-134.782 -205.941)" fill="#9684bc" opacity="0.86"/>
    <path id="Path_90" data-name="Path 90" d="M153.236,184.659l3.618,2.125L135,170.3l14.617,20.62v-4.135Z" transform="translate(-98.499 -170.3)" fill="#5167ad"/>
    <path id="Path_91" data-name="Path 91" d="M91,182.8v26.765l6-3.532,5.973,3.532Z" transform="translate(-67.135 -179.21)" fill="#5167ad" opacity="0.9"/>
    <path id="Path_92" data-name="Path 92" d="M130.67,259.486l-2.47-1.465v-2.786l2.441-1.436,2.585,1.378-.144,2.843Z" transform="translate(-93.652 -229.821)" fill="#664377"/>
    <path id="Path_93" data-name="Path 93" d="M106.709,204.568,91,182.8l10.683,24.611v-2.786l2.441-1.436Z" transform="translate(-67.135 -179.21)" fill="#9684bc" opacity="0.86"/>
    <path id="Path_94" data-name="Path 94" d="M171.869,262.941,169.6,257.8h4.394l2.728,2.326-2.441-1.436-2.412,1.436Z" transform="translate(-123.163 -232.672)" fill="#664377"/>
  </g>
  <g id="Group_6" data-name="Group 6" transform="translate(52.812 39.975)">
    <g id="Group_4" data-name="Group 4">
      <path id="Path_95" data-name="Path 95" d="M183.9,148.34v-.057a7.649,7.649,0,0,1,7.869-7.783,7.79,7.79,0,0,1,5.945,2.326l-2.1,2.441a5.509,5.509,0,0,0-3.848-1.694,4.458,4.458,0,0,0-4.365,4.681v.057a4.472,4.472,0,0,0,4.365,4.738,5.471,5.471,0,0,0,3.963-1.752l2.1,2.125A7.956,7.956,0,0,1,183.9,148.34Z" transform="translate(-183.9 -140.127)" fill="#606c71"/>
      <path id="Path_96" data-name="Path 96" d="M239.1,139.2h3.446v2.9H239.1Zm.086,4.164h3.274v11.545h-3.274Z" transform="translate(-223.248 -139.2)" fill="#606c71"/>
      <path id="Path_97" data-name="Path 97" d="M258.478,154.7v-5.456H257.1v-2.786h1.378V143.5h3.274v2.958h2.728v2.786h-2.728v4.939c0,.747.316,1.12,1.063,1.12a3.257,3.257,0,0,0,1.608-.4v2.613a4.911,4.911,0,0,1-2.585.661C259.828,158.175,258.478,157.371,258.478,154.7Z" transform="translate(-236.078 -142.265)" fill="#606c71"/>
      <path id="Path_98" data-name="Path 98" d="M294.615,153.7H298l-4.423,11.832c-.89,2.355-1.838,3.216-3.791,3.216a5.216,5.216,0,0,1-2.9-.8l1.091-2.355a3.015,3.015,0,0,0,1.407.459,1.1,1.1,0,0,0,1.149-.747L286,153.7h3.475l2.613,7.869Z" transform="translate(-256.679 -149.536)" fill="#606c71"/>
    </g>
    <g id="Group_5" data-name="Group 5">
      <path id="Path_99" data-name="Path 99" d="M183.9,148.34v-.057a7.649,7.649,0,0,1,7.869-7.783,7.79,7.79,0,0,1,5.945,2.326l-2.1,2.441a5.509,5.509,0,0,0-3.848-1.694,4.458,4.458,0,0,0-4.365,4.681v.057a4.472,4.472,0,0,0,4.365,4.738,5.471,5.471,0,0,0,3.963-1.752l2.1,2.125A7.956,7.956,0,0,1,183.9,148.34Z" transform="translate(-183.9 -140.127)" fill="#4d595f"/>
      <path id="Path_100" data-name="Path 100" d="M239.1,139.2h3.446v2.9H239.1Zm.086,4.164h3.274v11.545h-3.274Z" transform="translate(-223.248 -139.2)" fill="#4d595f"/>
      <path id="Path_101" data-name="Path 101" d="M258.478,154.7v-5.456H257.1v-2.786h1.378V143.5h3.274v2.958h2.728v2.786h-2.728v4.939c0,.747.316,1.12,1.063,1.12a3.257,3.257,0,0,0,1.608-.4v2.613a4.911,4.911,0,0,1-2.585.661C259.828,158.175,258.478,157.371,258.478,154.7Z" transform="translate(-236.078 -142.265)" fill="#4d595f"/>
      <path id="Path_102" data-name="Path 102" d="M294.615,153.7H298l-4.423,11.832c-.89,2.355-1.838,3.216-3.791,3.216a5.216,5.216,0,0,1-2.9-.8l1.091-2.355a3.015,3.015,0,0,0,1.407.459,1.1,1.1,0,0,0,1.149-.747L286,153.7h3.475l2.613,7.869Z" transform="translate(-256.679 -149.536)" fill="#4d595f"/>
    </g>
  </g>
  <g id="Group_8" data-name="Group 8" transform="translate(93.311 37.705)">
    <g id="Group_7" data-name="Group 7">
      <text id="_" data-name="+" transform="translate(0 11)" fill="#4d595e" font-size="14" font-family="Gotham-Bold, Gotham" font-weight="700"><tspan x="0" y="0">+</tspan></text>
    </g>
    <text id="_2" data-name="+" transform="translate(0 11)" fill="#4d595e" font-size="14" font-family="Gotham-Bold, Gotham" font-weight="700"><tspan x="0" y="0">+</tspan></text>
  </g>
  <g id="Group_11" data-name="Group 11" transform="translate(75.528 61.83)">
    <g id="Group_9" data-name="Group 9">
      <path id="Path_103" data-name="Path 103" d="M263.517,221.786v.345H263V219h.517v1.235a.932.932,0,0,1,.775-.431,1.091,1.091,0,0,1,1.063,1.177h0a1.091,1.091,0,0,1-1.063,1.177A.891.891,0,0,1,263.517,221.786Zm1.292-.775h0a.675.675,0,0,0-.661-.747.682.682,0,0,0-.66.718h0a.682.682,0,0,0,.66.718A.626.626,0,0,0,264.809,221.01Z" transform="translate(-263 -217.937)" fill="#5f6b70"/>
      <path id="Path_104" data-name="Path 104" d="M273.409,222h.546l-.919,2.326c-.172.459-.373.632-.747.632a1.1,1.1,0,0,1-.546-.144l.172-.373a.579.579,0,0,0,.316.086c.144,0,.23-.057.316-.258L271.6,222h.574l.632,1.694Z" transform="translate(-269.13 -220.076)" fill="#5f6b70"/>
      <path id="Path_105" data-name="Path 105" d="M286.5,215.9h.89v1.752l1.637-1.752h1.063l-1.637,1.694,1.723,2.326h-1.063l-1.235-1.723-.459.488v1.235h-.89V215.9Z" transform="translate(-279.751 -215.728)" fill="#5f6b70"/>
      <path id="Path_106" data-name="Path 106" d="M299.4,221.169h0c0-.689.517-1.005,1.235-1.005a2.549,2.549,0,0,1,.747.115v-.057c0-.373-.23-.574-.661-.574a2.1,2.1,0,0,0-.862.172l-.23-.661a2.785,2.785,0,0,1,1.206-.258,1.318,1.318,0,0,1,1.034.345,1.351,1.351,0,0,1,.345.976V222h-.833v-.345a1.2,1.2,0,0,1-.919.4A.871.871,0,0,1,299.4,221.169Zm2.01-.2v-.144a1.531,1.531,0,0,0-.546-.115c-.373,0-.6.144-.6.431h0c0,.23.2.373.488.373A.6.6,0,0,0,301.41,220.968Z" transform="translate(-288.947 -217.866)" fill="#5f6b70"/>
      <path id="Path_107" data-name="Path 107" d="M311.1,219.057h.862v.431a1.116,1.116,0,0,1,.948-.488,1.456,1.456,0,0,1,1.407,1.579h0a1.424,1.424,0,0,1-1.407,1.579,1.129,1.129,0,0,1-.948-.46v1.321H311.1Zm2.355,1.551h0a.754.754,0,1,0-1.493,0h0a.792.792,0,0,0,.747.862A.809.809,0,0,0,313.455,220.608Z" transform="translate(-297.287 -217.937)" fill="#5f6b70"/>
      <path id="Path_108" data-name="Path 108" d="M323.2,220.608h0A1.57,1.57,0,0,1,324.808,219a1.552,1.552,0,0,1,1.235.517l-.546.574a.947.947,0,0,0-.689-.345.782.782,0,0,0-.747.833h0a.812.812,0,0,0,.775.862,1.028,1.028,0,0,0,.718-.316l.517.517a1.56,1.56,0,0,1-1.264.574A1.588,1.588,0,0,1,323.2,220.608Z" transform="translate(-305.912 -217.937)" fill="#5f6b70"/>
      <path id="Path_109" data-name="Path 109" d="M334.4,215.3h.919v.775H334.4Zm.029,1.12h.862v3.073h-.862Z" transform="translate(-313.895 -215.3)" fill="#5f6b70"/>
      <path id="Path_110" data-name="Path 110" d="M339.173,219.487v-1.465H338.8v-.747h.373V216.5h.862v.775h.718v.747h-.718v1.321c0,.2.086.287.287.287a.692.692,0,0,0,.431-.115v.689a1.225,1.225,0,0,1-.689.172C339.547,220.406,339.173,220.2,339.173,219.487Z" transform="translate(-317.032 -216.155)" fill="#5f6b70"/>
      <path id="Path_111" data-name="Path 111" d="M346.6,220.608h0A1.534,1.534,0,0,1,348.122,219a1.492,1.492,0,0,1,1.493,1.666v.23h-2.154a.715.715,0,0,0,.747.6.979.979,0,0,0,.747-.316l.488.431a1.56,1.56,0,0,1-1.264.574A1.507,1.507,0,0,1,346.6,220.608Zm2.183-.258c-.057-.4-.287-.661-.66-.661s-.6.258-.661.661Z" transform="translate(-322.592 -217.937)" fill="#5f6b70"/>
    </g>
    <g id="Group_10" data-name="Group 10">
      <path id="Path_112" data-name="Path 112" d="M263.517,221.786v.345H263V219h.517v1.235a.932.932,0,0,1,.775-.431,1.091,1.091,0,0,1,1.063,1.177h0a1.091,1.091,0,0,1-1.063,1.177A.891.891,0,0,1,263.517,221.786Zm1.292-.775h0a.675.675,0,0,0-.661-.747.682.682,0,0,0-.66.718h0a.682.682,0,0,0,.66.718A.626.626,0,0,0,264.809,221.01Z" transform="translate(-263 -217.937)" fill="#4d595e"/>
      <path id="Path_113" data-name="Path 113" d="M273.409,222h.546l-.919,2.326c-.172.459-.373.632-.747.632a1.1,1.1,0,0,1-.546-.144l.172-.373a.579.579,0,0,0,.316.086c.144,0,.23-.057.316-.258L271.6,222h.574l.632,1.694Z" transform="translate(-269.13 -220.076)" fill="#4d595e"/>
      <path id="Path_114" data-name="Path 114" d="M286.5,215.9h.89v1.752l1.637-1.752h1.063l-1.637,1.694,1.723,2.326h-1.063l-1.235-1.723-.459.488v1.235h-.89V215.9Z" transform="translate(-279.751 -215.728)" fill="#4d595e"/>
      <path id="Path_115" data-name="Path 115" d="M299.4,221.169h0c0-.689.517-1.005,1.235-1.005a2.549,2.549,0,0,1,.747.115v-.057c0-.373-.23-.574-.661-.574a2.1,2.1,0,0,0-.862.172l-.23-.661a2.785,2.785,0,0,1,1.206-.258,1.318,1.318,0,0,1,1.034.345,1.351,1.351,0,0,1,.345.976V222h-.833v-.345a1.2,1.2,0,0,1-.919.4A.871.871,0,0,1,299.4,221.169Zm2.01-.2v-.144a1.531,1.531,0,0,0-.546-.115c-.373,0-.6.144-.6.431h0c0,.23.2.373.488.373A.6.6,0,0,0,301.41,220.968Z" transform="translate(-288.947 -217.866)" fill="#4d595e"/>
      <path id="Path_116" data-name="Path 116" d="M311.1,219.057h.862v.431a1.116,1.116,0,0,1,.948-.488,1.456,1.456,0,0,1,1.407,1.579h0a1.424,1.424,0,0,1-1.407,1.579,1.129,1.129,0,0,1-.948-.46v1.321H311.1Zm2.355,1.551h0a.754.754,0,1,0-1.493,0h0a.792.792,0,0,0,.747.862A.809.809,0,0,0,313.455,220.608Z" transform="translate(-297.287 -217.937)" fill="#4d595e"/>
      <path id="Path_117" data-name="Path 117" d="M323.2,220.608h0A1.57,1.57,0,0,1,324.808,219a1.552,1.552,0,0,1,1.235.517l-.546.574a.947.947,0,0,0-.689-.345.782.782,0,0,0-.747.833h0a.812.812,0,0,0,.775.862,1.028,1.028,0,0,0,.718-.316l.517.517a1.56,1.56,0,0,1-1.264.574A1.588,1.588,0,0,1,323.2,220.608Z" transform="translate(-305.912 -217.937)" fill="#4d595e"/>
      <path id="Path_118" data-name="Path 118" d="M334.4,215.3h.919v.775H334.4Zm.029,1.12h.862v3.073h-.862Z" transform="translate(-313.895 -215.3)" fill="#4d595e"/>
      <path id="Path_119" data-name="Path 119" d="M339.173,219.487v-1.465H338.8v-.747h.373V216.5h.862v.775h.718v.747h-.718v1.321c0,.2.086.287.287.287a.692.692,0,0,0,.431-.115v.689a1.225,1.225,0,0,1-.689.172C339.547,220.406,339.173,220.2,339.173,219.487Z" transform="translate(-317.032 -216.155)" fill="#4d595e"/>
      <path id="Path_120" data-name="Path 120" d="M346.6,220.608h0A1.534,1.534,0,0,1,348.122,219a1.492,1.492,0,0,1,1.493,1.666v.23h-2.154a.715.715,0,0,0,.747.6.979.979,0,0,0,.747-.316l.488.431a1.56,1.56,0,0,1-1.264.574A1.507,1.507,0,0,1,346.6,220.608Zm2.183-.258c-.057-.4-.287-.661-.66-.661s-.6.258-.661.661Z" transform="translate(-322.592 -217.937)" fill="#4d595e"/>
    </g>
  </g>
</svg>
