<svg xmlns="http://www.w3.org/2000/svg" width="38.581" height="38.714" viewBox="0 0 38.581 38.714">
  <g id="vCiXu6.tif_1_" transform="translate(0.028 0.1)">
    <g id="Group_38" data-name="Group 38">
      <path id="Path_180" data-name="Path 180" d="M.6,38.4c-.2,0-.3.1-.5.1V29.6c.7-.7,1.6-.5,2.5-.7.6-.1,1.2-.2,1-1a1.756,1.756,0,0,0-.4-.5c-1-.4-2.2.1-3.1-.8v-3c.9-.9,2.1-.4,3.1-.8.1-.1.2-.1.2-.2l.2-.2a1.376,1.376,0,0,0,.1-1.1c-.1-.2-.2-.3-.3-.5a.781.781,0,0,0-.4-.4c-1-.3-2.1.1-3-.7v-3c.9-.9,2.1-.4,3.1-.9.1-.1.1-.2.2-.2,0-.1.1-.2.1-.3.2-.9-.5-.8-1-.9-.8-.2-1.8.1-2.4-.7V9.8C1,9,2.2,9.5,3.2,9c.1-.2.3-.3.3-.5.1-.8-.5-.8-1-.9C1.7,7.4.8,7.6.1,6.9A51.858,51.858,0,0,0,0,1.3C-.2-.3.7,0,1.6,0L17.7,16.4c.7.8,1.4,1.5,2.1,2.3-.5,2.5-2.6,3.6-4.2,5.1-2.3-.8-3.4-3-5.2-4.4-.7-.6-1.3-2-2.2-1.6-1.1.4-.6,1.9-.6,2.9,0,3.7-.1,7.3.1,11C5.5,34.1,3.4,36.7.6,38.4Z" fill="#ffd100"/>
      <path id="Path_181" data-name="Path 181" d="M17.3,0a14.2,14.2,0,0,1,4.1,3.6,3.7,3.7,0,0,1-2,2.4.854.854,0,0,1-.7,0,17.037,17.037,0,0,1-3.4-3.2c-.5-.5-1-1.1-.5-1.9.2-.8,1.3-.2,1.5-1A3.751,3.751,0,0,0,17.3,0Z" fill="#446c71"/>
      <path id="Path_182" data-name="Path 182" d="M.1,13.8c1,0,2.1-.1,3.1,0,1.1.2,1.9.7.8,1.9a4.481,4.481,0,0,1-3.9-.4Q.1,14.55.1,13.8Z" fill="#f18432"/>
      <path id="Path_183" data-name="Path 183" d="M.1,6.9A16.079,16.079,0,0,1,3.2,7c1.2.1,1.8.8.8,1.9a.367.367,0,0,1-.3.1C2.4,9,1.2,9.3.1,8.4Z" fill="#f18530"/>
      <path id="Path_184" data-name="Path 184" d="M4,27.6c.9,1.1.4,1.8-.8,2-1,.1-2.1,0-3.1,0V28.1c1.1-.9,2.3-.6,3.6-.6C3.8,27.5,3.9,27.6,4,27.6Z" fill="#f08334"/>
      <path id="Path_185" data-name="Path 185" d="M4.2,21.2c.5.6.5,1.1-.2,1.4a4.481,4.481,0,0,1-3.9-.4v-1A3.45,3.45,0,0,1,4.2,21.2Z" fill="#f18431"/>
      <path id="Path_186" data-name="Path 186" d="M.1,15.3c1.3.2,2.7-.5,3.9.4l.1.1a3.884,3.884,0,0,1-3.9,0A.9.9,0,0,1,.1,15.3Z" fill="#f07e39"/>
      <path id="Path_187" data-name="Path 187" d="M.1,15.8H4v.5a6.488,6.488,0,0,1-3.9,0C.1,16.1.1,16,.1,15.8Z" fill="#f8aa00"/>
      <path id="Path_188" data-name="Path 188" d="M.1,16.3H4c-1.2,1-2.6.3-3.9.5C.1,16.6.1,16.4.1,16.3Z" fill="gold"/>
      <path id="Path_189" data-name="Path 189" d="M4,8.9v.4a6.488,6.488,0,0,1-3.9,0V8.8A10.234,10.234,0,0,1,4,8.8Z" fill="#f6a300"/>
      <path id="Path_190" data-name="Path 190" d="M4,8.8c-1.3,0-2.6,0-3.9.1V8.4C1.4,8.6,2.8,8,4,8.8Z" fill="#f07e39"/>
      <path id="Path_191" data-name="Path 191" d="M.1,9.4H4c-1.2,1-2.6.3-3.9.5C.1,9.7.1,9.5.1,9.4Z" fill="gold"/>
      <path id="Path_192" data-name="Path 192" d="M.1,19.7c1.3.3,2.7-.5,3.9.5a3.884,3.884,0,0,1-3.9,0C.1,20.1.1,19.9.1,19.7Z" fill="#ffd600"/>
      <path id="Path_193" data-name="Path 193" d="M.1,20.2H4v.5a6.488,6.488,0,0,1-3.9,0C.1,20.5.1,20.4.1,20.2Z" fill="#fcbc00"/>
      <path id="Path_194" data-name="Path 194" d="M.1,20.7H4c0,.1.1.3.1.4-1.4,0-2.7,0-4.1.1A.9.9,0,0,0,.1,20.7Z" fill="#f08039"/>
      <path id="Path_195" data-name="Path 195" d="M.1,22.2c1.3.2,2.6-.4,3.9.4l.1.1a3.884,3.884,0,0,1-3.9,0A.9.9,0,0,1,.1,22.2Z" fill="#f07f39"/>
      <path id="Path_196" data-name="Path 196" d="M.1,22.7H4v.5a6.488,6.488,0,0,1-3.9,0C.1,23,.1,22.8.1,22.7Z" fill="#fbb800"/>
      <path id="Path_197" data-name="Path 197" d="M.1,23.2H4c-1.2,1-2.6.3-3.9.5C.1,23.5.1,23.3.1,23.2Z" fill="#ffd600"/>
      <path id="Path_198" data-name="Path 198" d="M.1,26.6c1.3.2,2.7-.5,3.9.5a3.884,3.884,0,0,1-3.9,0C.1,27,.1,26.8.1,26.6Z" fill="#ffd600"/>
      <path id="Path_199" data-name="Path 199" d="M.1,27.1H4v.6a10.244,10.244,0,0,1-3.9-.1C.1,27.4.1,27.3.1,27.1Z" fill="#fbb700"/>
      <path id="Path_200" data-name="Path 200" d="M.1,27.6c1.3,0,2.6.1,3.9.1-1.2.8-2.6.2-3.9.4C.1,27.9.1,27.8.1,27.6Z" fill="#f07f3a"/>
      <path id="Path_201" data-name="Path 201" d="M.6,38.4c2.2-2.2,4-4.9,6.9-6.3.9-.8,2-.6,3-.6h8.8c.6,0,1.4.1,1.7-.7.2-.6-.4-1-.8-1.4-1.1-1.1-2.2-2.2-3.2-3.3-.6-.6-1.4-1.2-1.1-2.3.6-2.2,3-3,4-5,6,5.9,12,11.9,18,17.8.4.4.8.8.6,1.5-.3.8-1,.4-1.5.5-1.6,0-3.3,0-4.9-.1-.8-.8-.2-2.1-1.2-3-1,.8-.2,2.3-1.2,3H27.3c-.9-.6-.4-1.8-1-2.6-.7.8-.1,2-1,2.6H22.9c-.8-.7-.4-1.8-.9-2.7-.7.9-.2,2-1.1,2.7H18.5c-.9-.8-.2-2.2-1.1-3-1.1.8-.4,2.2-1.3,3H14c-.9-1.1-.4-2.6-1.2-3.6-.7,1-.3,2.5-1.2,3.6H9.2c-.9-.6-.5-1.8-1-2.7-.7.8-.2,2-1.1,2.6Z" fill="#fbb900"/>
      <path id="Path_202" data-name="Path 202" d="M19.3,5.9c.7-.7,1.4-1.5,2.1-2.2L34,16.3A2.451,2.451,0,0,1,32.2,19a1.7,1.7,0,0,1-.7-.1c-4.2-3.6-7.8-7.7-11.7-11.5C19.4,7,18.9,6.5,19.3,5.9Z" fill="#da6315"/>
      <path id="Path_203" data-name="Path 203" d="M19.3,5.9c3.2,3.8,7,7.1,10.4,10.7L31.8,19c-.4,1.3-.9,2.3-2.6,1.9-4.1-4.2-8.3-8.4-12.4-12.6A2.375,2.375,0,0,1,18.9,6C19,5.9,19.1,5.9,19.3,5.9Z" fill="#aa4c17"/>
      <path id="Path_204" data-name="Path 204" d="M18.9,6c-.7.7-1.4,1.4-2.1,2.2C16,7.3,15,6.6,14.3,5.7,13,4.1,12.8,2.4,14.8,1,15.5,3.2,17.8,4.1,18.9,6Z" fill="#344a4a"/>
      <path id="Path_205" data-name="Path 205" d="M32.1,18.8A5.778,5.778,0,0,0,34,16.3a50.277,50.277,0,0,1,4.1,7.1c.3.6.6,1.2-.1,1.8C35.7,23.4,33.2,21.8,32.1,18.8Z" fill="#fce4c6"/>
      <path id="Path_206" data-name="Path 206" d="M32.1,18.8c2,2.1,4,4.3,6,6.4-1.7.4-2.8-1-4.1-1.6-1.7-.8-3.2-1.9-4.8-2.8,1.4.1,1.8-1.1,2.6-1.9A.367.367,0,0,1,32.1,18.8Z" fill="#f8c689"/>
      <path id="Path_207" data-name="Path 207" d="M15.9,38.4V35.9a1.456,1.456,0,0,1,1.3-1.6c.9,0,1.2.7,1.2,1.6v2.5Z" fill="#ee7304"/>
      <path id="Path_208" data-name="Path 208" d="M29.6,38.4V36.2c0-.9.1-1.8,1.2-1.8,1,0,1.3.9,1.3,1.8v2.2Z" fill="#ee7404"/>
      <path id="Path_209" data-name="Path 209" d="M11.4,38.4V36c0-.8.4-1.6,1.2-1.6s1.2.8,1.2,1.6v2.4Z" fill="#ee7305"/>
      <path id="Path_210" data-name="Path 210" d="M7,38.4V35.8c0-.7.3-1.3,1.1-1.2.7,0,.9.5.9,1.1v2.6A14.084,14.084,0,0,1,7,38.4Z" fill="#ed6f06"/>
      <path id="Path_211" data-name="Path 211" d="M20.7,38.4V35.7c0-.6.2-1.1,1-1.1a.972.972,0,0,1,1,1.1v2.7Z" fill="#ed6f06"/>
      <path id="Path_212" data-name="Path 212" d="M25.2,38.4V35.8c0-.7.3-1.3,1.1-1.2.7.1.9.6.9,1.2v2.6Z" fill="#ed6e07"/>
    </g>
  </g>
</svg>
