<svg id="Group_48" data-name="Group 48" xmlns="http://www.w3.org/2000/svg" width="40.135" height="40.291" viewBox="0 0 40.135 40.291">
  <path id="Path_73" data-name="Path 73" d="M40.346,104.378H11.411A3.12,3.12,0,0,1,8.3,101.267V94.111A3.12,3.12,0,0,1,11.411,91H40.19A3.12,3.12,0,0,1,43.3,94.111v7.156A2.985,2.985,0,0,1,40.346,104.378Z" transform="translate(-5.967 -83.533)" fill="#56565c"/>
  <g id="Group_21" data-name="Group 21" transform="translate(0 14.001)">
    <path id="Path_74" data-name="Path 74" d="M11,95.2a4.183,4.183,0,0,0-4.2,4.2v13.067a4.183,4.183,0,0,0,4.2,4.2H26.712V95.2Z" transform="translate(-6.8 -95.2)" fill="#38a5dd"/>
    <path id="Path_75" data-name="Path 75" d="M39.823,112.467V99.4a4.183,4.183,0,0,0-4.2-4.2H19.6v21.468H35.623A4.183,4.183,0,0,0,39.823,112.467Z" transform="translate(0.312 -95.2)" fill="#417dbf"/>
  </g>
  <path id="Path_76" data-name="Path 76" d="M10.944,100.489h3.111A1.338,1.338,0,0,0,15.3,99.244h0A1.338,1.338,0,0,0,14.056,98H10.944A1.338,1.338,0,0,0,9.7,99.244h0A1.227,1.227,0,0,0,10.944,100.489Z" transform="translate(-5.189 -79.644)" fill="#ece8f5"/>
  <rect id="Rectangle_34" data-name="Rectangle 34" width="30.801" height="2.645" transform="translate(4.822 23.49)" fill="#56565c"/>
  <rect id="Rectangle_35" data-name="Rectangle 35" width="26.446" height="14.467" transform="translate(7 25.823)" fill="#ece8f5"/>
  <path id="Path_77" data-name="Path 77" d="M29.59,107.1H15.9a1.394,1.394,0,0,1-1.4-1.4h0a1.394,1.394,0,0,1,1.4-1.4H29.59a1.394,1.394,0,0,1,1.4,1.4h0C31.145,106.478,30.523,107.1,29.59,107.1Z" transform="translate(-2.522 -76.143)" fill="#86838e"/>
  <path id="Path_78" data-name="Path 78" d="M29.59,110H15.9a1.394,1.394,0,0,1-1.4-1.4h0a1.394,1.394,0,0,1,1.4-1.4H29.59a1.394,1.394,0,0,1,1.4,1.4h0C31.145,109.222,30.523,110,29.59,110Z" transform="translate(-2.522 -74.532)" fill="#86838e"/>
  <path id="Path_79" data-name="Path 79" d="M11.3,86.2V99.423H37.746V96.312L27.79,86.2Z" transform="translate(-4.3 -86.2)" fill="#ece8f5"/>
  <path id="Path_80" data-name="Path 80" d="M21.9,86.2V96.312h9.956Z" transform="translate(1.59 -86.2)" fill="#f4972c"/>
</svg>
