<svg id="Group_50" data-name="Group 50" xmlns="http://www.w3.org/2000/svg" width="41.437" height="41.437" viewBox="0 0 41.437 41.437">
  <g id="Group_24" data-name="Group 24">
    <circle id="Ellipse_11" data-name="Ellipse 11" cx="12.785" cy="12.785" r="12.785" fill="#247fc2"/>
    <path id="Path_84" data-name="Path 84" d="M94.025,182.233c-.913-1.522-2.131-1.826-3.348-1.065-.457.3-.3,1.37-.457,2.587.913-.457,1.37-.761,1.979-1.065.457,1.065.913,2.131,1.37,3.044.152.152.761.457.913.3,2.131-1.37,3.5,0,5.327,1.065a9.963,9.963,0,0,1-5.936,3.2c0-.457-.152-.913-.152-1.218.152-.761.761-1.826.457-2.131a10.081,10.081,0,0,0-3.348-2.283,5.032,5.032,0,0,1-2.892-2.131c-.761-1.218-1.979-1.979-2.892-3.2a5.866,5.866,0,0,1-.913-2.74c-.152-.457,0-1.065-.152-1.218-1.522-1.218-.609-2.131.3-2.892,1.218-.913,2.435-1.674,3.653-2.587.3-.152.761,0,1.065,0a3.277,3.277,0,0,0,1.674-.3c.913.152,1.674.3,2.587.457a.486.486,0,0,1,.457.457.915.915,0,0,1-.152.609c-.152.152-.609.152-.761.3a13.726,13.726,0,0,0-1.522,1.37c.457.3,1.065.609,1.522.913a14.05,14.05,0,0,1,1.218.761c.152-.761.3-1.674.457-2.892,1.826.913,3.348,1.826,5.175,2.74C97.221,176.754,94.177,178.276,94.025,182.233Z" transform="translate(-79.261 -166.86)" fill="#a0d7e7"/>
  </g>
  <path id="Path_85" data-name="Path 85" d="M87.878,188.929a2.822,2.822,0,0,0,.3,1.065c0,.152,0,.152.152.3,0,.152.152.3.152.457s0,.152.152.3c0,.152.152.3.152.457.152.152.152.3.3.457a9.479,9.479,0,0,0,2.131,2.74,11.571,11.571,0,0,0,14.307,1.674l.761.761,1.37,1.37h0l6.088,6.088a2.691,2.691,0,0,0,3.805-3.805l-6.088-6.088-2.131-2.131a11.619,11.619,0,0,0-18.112-14.307,12.049,12.049,0,0,0-3.348,7.154v.609A4.686,4.686,0,0,0,87.878,188.929Zm4.414-9.132a9.794,9.794,0,1,1,0,13.85A9.83,9.83,0,0,1,92.292,179.8Z" transform="translate(-76.92 -164.12)" fill="#52b9ad"/>
  <circle id="Ellipse_12" data-name="Ellipse 12" cx="9.893" cy="9.893" r="9.893" transform="translate(12.481 12.785)" fill="#fff"/>
  <path id="Path_86" data-name="Path 86" d="M91.075,194.913a11.623,11.623,0,1,0,0-16.438A11.575,11.575,0,0,0,91.075,194.913Zm1.218-15.22a9.794,9.794,0,1,1,0,13.851A9.83,9.83,0,0,1,92.292,179.692Z" transform="translate(-76.92 -164.015)" fill="#363e46"/>
  <path id="Path_87" data-name="Path 87" d="M102.9,194.105l2.587,2.587a2.691,2.691,0,1,0,3.805-3.805l-2.587-2.587Z" transform="translate(-68.959 -156.054)" fill="#f8c423"/>
</svg>
