<svg id="Group_15" data-name="Group 15" xmlns="http://www.w3.org/2000/svg" width="39.275" height="40.575" viewBox="0 0 39.275 40.575">
  <g id="Group_3_2_">
    <path id="Path_49_2_" d="M34.5,17.2A17.25,17.25,0,1,0,17.3,34.5,17.221,17.221,0,0,0,34.5,17.2ZM17.3,29.1A11.9,11.9,0,1,1,29.2,17.2,11.928,11.928,0,0,1,17.3,29.1Z" fill="#008695"/>
    <path id="Path_50_2_" d="M38.9,35.4l-6.7-6.5-4.8,4.8,6.7,6.5a1.151,1.151,0,0,0,1.7,0h0l3.1-3.1A1.151,1.151,0,0,0,38.9,35.4Z" fill="#008695"/>
  </g>
  <path id="Path_51_2_" d="M24.1,19.8V15.5h-13v4.3Z" fill="#ec623e"/>
</svg>
