<svg id="Group_14" data-name="Group 14" xmlns="http://www.w3.org/2000/svg" width="39.26" height="40.57" viewBox="0 0 39.26 40.57">
  <g id="Group_3" data-name="Group 3">
    <path id="Path_49" data-name="Path 49" d="M34.511,17.262A17.255,17.255,0,1,0,17.262,34.525,17.252,17.252,0,0,0,34.511,17.262ZM17.262,29.1A11.853,11.853,0,1,1,29.116,17.248,11.859,11.859,0,0,1,17.262,29.1Z" fill="#008695"/>
    <path id="Path_50" data-name="Path 50" d="M207.518,213.128l-6.7-6.528L196,211.408l6.7,6.528a1.2,1.2,0,0,0,1.705,0l3.117-3.117A1.207,1.207,0,0,0,207.518,213.128Z" transform="translate(-168.604 -177.722)" fill="#008695"/>
  </g>
  <path id="Path_51" data-name="Path 51" d="M92.6,83.933H88.266V79.6H83.933v4.333H79.6v4.333h4.333V92.6h4.333V88.266H92.6Z" transform="translate(-68.474 -68.474)" fill="#ec623f"/>
</svg>
